<svg width="19" height="10" viewBox="0 0 19 10" fill="none" xmlns="http://www.w3.org/2000/svg">
<path d="M4.21206 0.984656C4.2962 0.696925 4.7038 0.696926 4.78794 0.984657L5.44721 3.23912C5.48461 3.36702 5.60189 3.45492 5.73515 3.45492H7.93053C8.21345 3.45492 8.33911 3.81063 8.11897 3.98835L6.29036 5.46452C6.19612 5.54061 6.15687 5.6659 6.19086 5.78216L6.87624 8.12589C6.95872 8.40794 6.62851 8.62811 6.39985 8.44352L4.68844 7.06195C4.57849 6.97319 4.42151 6.97319 4.31156 7.06195L2.60015 8.44352C2.37149 8.62811 2.04128 8.40794 2.12376 8.12589L2.80914 5.78216C2.84313 5.6659 2.80388 5.54061 2.70964 5.46452L0.88103 3.98835C0.66089 3.81063 0.786551 3.45492 1.06947 3.45492H3.26485C3.39811 3.45492 3.51539 3.36702 3.55279 3.23912L4.21206 0.984656Z" fill="#343C58"/>
<path d="M13.7147 0.878115C13.8045 0.601722 14.1955 0.601722 14.2853 0.878115L15.0552 3.24762C15.0954 3.37123 15.2106 3.45492 15.3405 3.45492H17.832C18.1226 3.45492 18.2434 3.8268 18.0083 3.99762L15.9927 5.46205C15.8875 5.53845 15.8435 5.67386 15.8837 5.79746L16.6536 8.16697C16.7434 8.44336 16.4271 8.6732 16.192 8.50238L14.1763 7.03795C14.0712 6.96155 13.9288 6.96155 13.8237 7.03795L11.808 8.50238C11.5729 8.6732 11.2566 8.44336 11.3464 8.16697L12.1163 5.79746C12.1565 5.67386 12.1125 5.53845 12.0073 5.46205L9.99169 3.99762C9.75657 3.8268 9.87741 3.45492 10.168 3.45492H12.6595C12.7894 3.45492 12.9046 3.37123 12.9448 3.24762L13.7147 0.878115Z" fill="#343C58"/>
</svg>
