<svg width="29" height="10" viewBox="0 0 29 10" fill="none" xmlns="http://www.w3.org/2000/svg">
<path d="M4.71468 0.878115C4.80449 0.601722 5.19551 0.601722 5.28532 0.878115L6.05522 3.24762C6.09538 3.37123 6.21057 3.45492 6.34053 3.45492H8.83198C9.12259 3.45492 9.24343 3.8268 9.00831 3.99762L6.99269 5.46205C6.88755 5.53845 6.84355 5.67386 6.88371 5.79746L7.65361 8.16697C7.74341 8.44336 7.42707 8.6732 7.19196 8.50238L5.17634 7.03795C5.07119 6.96155 4.92881 6.96155 4.82366 7.03795L2.80804 8.50238C2.57293 8.6732 2.25659 8.44336 2.34639 8.16697L3.11629 5.79746C3.15645 5.67386 3.11245 5.53845 3.00731 5.46205L0.991687 3.99762C0.756573 3.8268 0.877406 3.45492 1.16802 3.45492H3.65947C3.78944 3.45492 3.90462 3.37123 3.94478 3.24762L4.71468 0.878115Z" fill="#343C58"/>
<path d="M14.2121 0.984656C14.2962 0.696925 14.7038 0.696926 14.7879 0.984657L15.4472 3.23912C15.4846 3.36702 15.6019 3.45492 15.7351 3.45492H17.9305C18.2134 3.45492 18.3391 3.81063 18.119 3.98835L16.2904 5.46452C16.1961 5.54061 16.1569 5.6659 16.1909 5.78216L16.8762 8.12589C16.9587 8.40794 16.6285 8.62811 16.3999 8.44352L14.6884 7.06195C14.5785 6.97319 14.4215 6.97319 14.3116 7.06195L12.6001 8.44352C12.3715 8.62811 12.0413 8.40794 12.1238 8.12589L12.8091 5.78216C12.8431 5.6659 12.8039 5.54061 12.7096 5.46452L10.881 3.98835C10.6609 3.81063 10.7866 3.45492 11.0695 3.45492H13.2649C13.3981 3.45492 13.5154 3.36702 13.5528 3.23912L14.2121 0.984656Z" fill="#343C58"/>
<path d="M23.7147 0.878115C23.8045 0.601722 24.1955 0.601722 24.2853 0.878115L25.0552 3.24762C25.0954 3.37123 25.2106 3.45492 25.3405 3.45492H27.832C28.1226 3.45492 28.2434 3.8268 28.0083 3.99762L25.9927 5.46205C25.8875 5.53845 25.8435 5.67386 25.8837 5.79746L26.6536 8.16697C26.7434 8.44336 26.4271 8.6732 26.192 8.50238L24.1763 7.03795C24.0712 6.96155 23.9288 6.96155 23.8237 7.03795L21.808 8.50238C21.5729 8.6732 21.2566 8.44336 21.3464 8.16697L22.1163 5.79746C22.1565 5.67386 22.1125 5.53845 22.0073 5.46205L19.9917 3.99762C19.7566 3.8268 19.8774 3.45492 20.168 3.45492H22.6595C22.7894 3.45492 22.9046 3.37123 22.9448 3.24762L23.7147 0.878115Z" fill="#343C58"/>
</svg>
